REM DIRINDEX 1\2\6,1\2\7,1\2\8,1\2\9,1\3\10,1\3\11,1\4\12,1\4\13,1\4\14,1\5\15,1\5\16,1\5\17
REM DIRNAME cjc020,folder01,folder02,folder03,folder04,folder05,folder06,folder07,folder08,folder09,folder10,folder11,folder12,folder13,folder14,folder15,folder16
TITLE ""
FILE "1900_3_061 sec11_1001_1015.mp3" MP3
  TRACK 01 AUDIO
    TITLE "0:"
    INDEX 01 00:00:00
  TRACK 02 AUDIO
    TITLE "15:cjc020_7978"
    INDEX 01 00:00:15
  TRACK 03 AUDIO
    TITLE "0:"
    INDEX 01 00:01:54
  TRACK 04 AUDIO
    TITLE "17:cjc020_7979"
    INDEX 01 00:02:57
  TRACK 05 AUDIO
    TITLE "0:"
    INDEX 01 00:03:61
  TRACK 06 AUDIO
    TITLE "16:cjc020_7980"
    INDEX 01 00:03:70
  TRACK 07 AUDIO
    TITLE "0:"
    INDEX 01 00:05:09
  TRACK 08 AUDIO
    TITLE "17:cjc020_7981"
    INDEX 01 00:05:57
  TRACK 09 AUDIO
    TITLE "0:"
    INDEX 01 00:06:69
  TRACK 10 AUDIO
    TITLE "16:cjc020_7982"
    INDEX 01 00:07:00
  TRACK 11 AUDIO
    TITLE "0:"
    INDEX 01 00:08:24
  TRACK 12 AUDIO
    TITLE "17:cjc020_7983"
    INDEX 01 00:09:08
  TRACK 13 AUDIO
    TITLE "0:"
    INDEX 01 00:10:33
  TRACK 14 AUDIO
    TITLE "16:cjc020_7984"
    INDEX 01 00:10:39
  TRACK 15 AUDIO
    TITLE "0:"
    INDEX 01 00:11:56
  TRACK 16 AUDIO
    TITLE "17:cjc020_7985"
    INDEX 01 00:12:38
  TRACK 17 AUDIO
    TITLE "0:"
    INDEX 01 00:13:49
  TRACK 18 AUDIO
    TITLE "16:cjc020_7986"
    INDEX 01 00:13:55
  TRACK 19 AUDIO
    TITLE "0:"
    INDEX 01 00:14:54
  TRACK 20 AUDIO
    TITLE "17:cjc020_7987"
    INDEX 01 00:15:42
  TRACK 21 AUDIO
    TITLE "0:"
    INDEX 01 00:16:57
  TRACK 22 AUDIO
    TITLE "16:cjc020_7988"
    INDEX 01 00:16:61
  TRACK 23 AUDIO
    TITLE "0:"
    INDEX 01 00:17:69
  TRACK 24 AUDIO
    TITLE "17:cjc020_7989"
    INDEX 01 00:18:50
  TRACK 25 AUDIO
    TITLE "0:"
    INDEX 01 00:19:69
  TRACK 26 AUDIO
    TITLE "16:cjc020_7990"
    INDEX 01 00:19:73
  TRACK 27 AUDIO
    TITLE "0:"
    INDEX 01 00:21:19
  TRACK 28 AUDIO
    TITLE "17:cjc020_7991"
    INDEX 01 00:22:03
  TRACK 29 AUDIO
    TITLE "0:"
    INDEX 01 00:23:28
  TRACK 30 AUDIO
    TITLE "16:cjc020_7992"
    INDEX 01 00:23:36
  TRACK 31 AUDIO
    TITLE "0:"
    INDEX 01 00:24:41
  TRACK 32 AUDIO
    TITLE "17:cjc020_7993"
    INDEX 01 00:25:25
  TRACK 33 AUDIO
    TITLE "0:"
    INDEX 01 00:26:42
  TRACK 34 AUDIO
    TITLE "16:cjc020_7994"
    INDEX 01 00:26:48
  TRACK 35 AUDIO
    TITLE "0:"
    INDEX 01 00:27:61
  TRACK 36 AUDIO
    TITLE "17:cjc020_7995"
    INDEX 01 00:28:43
  TRACK 37 AUDIO
    TITLE "0:"
    INDEX 01 00:29:72
  TRACK 38 AUDIO
    TITLE "16:cjc020_7996"
    INDEX 01 00:30:06
  TRACK 39 AUDIO
    TITLE "0:"
    INDEX 01 00:31:18
  TRACK 40 AUDIO
    TITLE "17:cjc020_7997"
    INDEX 01 00:32:07
  TRACK 41 AUDIO
    TITLE "0:"
    INDEX 01 00:33:34
  TRACK 42 AUDIO
    TITLE "16:cjc020_7998"
    INDEX 01 00:33:42
  TRACK 43 AUDIO
    TITLE "0:"
    INDEX 01 00:34:45
  TRACK 44 AUDIO
    TITLE "17:cjc020_7999"
    INDEX 01 00:35:35
  TRACK 45 AUDIO
    TITLE "0:"
    INDEX 01 00:36:52
  TRACK 46 AUDIO
    TITLE "16:cjc020_8000"
    INDEX 01 00:36:56
  TRACK 47 AUDIO
    TITLE "0:"
    INDEX 01 00:37:63
  TRACK 48 AUDIO
    TITLE "17:cjc020_8001"
    INDEX 01 00:38:47
  TRACK 49 AUDIO
    TITLE "0:"
    INDEX 01 00:39:51
  TRACK 50 AUDIO
    TITLE "16:cjc020_8002"
    INDEX 01 00:39:58
  TRACK 51 AUDIO
    TITLE "0:"
    INDEX 01 00:40:66
  TRACK 52 AUDIO
    TITLE "17:cjc020_8003"
    INDEX 01 00:41:45
  TRACK 53 AUDIO
    TITLE "0:"
    INDEX 01 00:42:63
  TRACK 54 AUDIO
    TITLE "16:cjc020_8004"
    INDEX 01 00:42:68
  TRACK 55 AUDIO
    TITLE "0:"
    INDEX 01 00:44:07
  TRACK 56 AUDIO
    TITLE "17:cjc020_8005"
    INDEX 01 00:44:65
  TRACK 57 AUDIO
    TITLE "0:"
    INDEX 01 00:46:54
  TRACK 58 AUDIO
    TITLE "16:cjc020_8006"
    INDEX 01 00:46:64
  TRACK 59 AUDIO
    TITLE "0:"
    INDEX 01 00:47:60
  TRACK 60 AUDIO
    TITLE "17:cjc020_8007"
    INDEX 01 00:48:46
  TRACK 61 AUDIO
    TITLE "0:"
    INDEX 01 00:50:39
  TRACK 62 AUDIO
    TITLE "16:cjc020_8008"
    INDEX 01 00:50:44
  TRACK 63 AUDIO
    TITLE "0:"
    INDEX 01 00:51:56
